# xmcd
#
# Track frame offsets:
#	150
#	14242
#	27872
#	43070
#	56922
#	73672
#	84225
#	98085
#	111837
#	125052
#
# Disc length: 1818 seconds
#
# Revision: 0
# Processed by: cddbd v1.5.2PL0 Copyright (c) Steve Scherf et al.
# Submitted via: EasyCDDAExtractor 12.0.1.1
#
DISCID=8b07180a
DTITLE=Reneé Shafer - In Between
DYEAR=1999
DGENRE=Country
TTITLE0=Rain Rain
TTITLE1=The Whiskey's In The Glass
TTITLE2=If You Can't Be Good Be Gone
TTITLE3=Ounce Of Pleasure
TTITLE4=I Find You
TTITLE5=Not Tonight
TTITLE6=Good To You
TTITLE7=Bad Timing
TTITLE8=I Think I'll Leave It Alone
TTITLE9=I'm Never Late For You
EXTD=
EXTT0=
EXTT1=
EXTT2=
EXTT3=
EXTT4=
EXTT5=
EXTT6=
EXTT7=
EXTT8=
EXTT9=
PLAYORDER=
